<?xml version="1.0" encoding="UTF-8"?>
<svg id="Capa_2" xmlns="http://www.w3.org/2000/svg" viewBox="0 0 106.14 93.18">
  <defs>
    <style>
      .cls-1 {
        fill: #5200c5;
      }

      .cls-2 {
        fill: #fff;
      }

      .cls-3 {
        fill: #eaeaea;
      }
    </style>
  </defs>
  <g id="Capa_2-2" data-name="Capa_2">
    <g>
      <path class="cls-3" d="M102.06,93.18H23.45s-19.94-7.67-19.94-7.67c-2.85-1.1-3.63-5.03-1.43-7.26L78.15.95c1.12-1.13,10.98-.87,12.43-.31l12.86,7.48c1.62.62,2.7,2.26,2.7,4.1v76.59c0,2.41-1.82,4.36-4.08,4.36Z"/>
      <rect class="cls-2" width="93.19" height="85.33" rx="4.87" ry="4.87"/>
      <g>
        <g>
          <path class="cls-1" d="M62.18,75.23l-1.3-7.36c-.08-.43.21-.84.64-.93,2.8-.61,4.69-1.71,5.65-3.28.69-1.14.64-1.98.4-4.48-.23-2.29-.54-5.44.25-9.51,1.15-5.87,3.91-9.66,5.92-12.43,1.87-2.57,2.51-3.58,2.35-4.86-.22-1.79-2.01-3.39-3.7-4.51-.36-.24-.46-.72-.23-1.09l3.9-6.37c.24-.39.75-.51,1.13-.26,4.73,3.08,7.39,6.82,7.92,11.13.61,4.96-1.85,8.34-4.02,11.32-1.76,2.42-3.59,4.93-4.35,8.82-.54,2.76-.33,4.85-.13,6.87.29,2.96.63,6.31-1.67,10.1-2.34,3.85-6.31,6.37-11.79,7.5-.44.09-.88-.21-.96-.66Z"/>
          <path class="cls-1" d="M78.67,45.46l6.78,5.29c1.14.89.6,2.72-.84,2.85l-8.72.76c-1.14.1-2.01-.99-1.66-2.08l1.94-6.05c.34-1.06,1.63-1.45,2.5-.77Z"/>
        </g>
        <g>
          <path class="cls-1" d="M17.55,64.14c-.18.21-.51.23-.72.04-4.26-3.87-6.43-8.15-6.43-12.74,0-4.43,2.01-7.13,3.8-9.51,1.22-1.62,2.48-3.3,3.45-5.95,1.37-3.73,1.1-6.81.85-9.8-.31-3.68-.67-7.84,2.42-11.77,2.73-3.47,7.06-5.3,12.85-5.42.28,0,.51.22.51.5l.04,8.09c0,.27-.21.49-.48.5-2.08.06-4.61.47-5.78,1.95-.8,1.02-.78,2.22-.51,5.38.29,3.41.69,8.08-1.37,13.7-1.43,3.9-3.32,6.42-4.71,8.27-1.51,2.01-1.98,2.71-1.98,4.04,0,1.9,1.13,3.89,3.35,5.94.2.18.22.49.05.69l-5.34,6.09Z"/>
          <path class="cls-1" d="M19.19,29.87l-8.88,1.05c-1.36.16-1.82,1.91-.71,2.72l7.34,5.37c.87.64,2.11.18,2.36-.87l1.53-6.42c.24-1.02-.6-1.97-1.65-1.85Z"/>
        </g>
        <path class="cls-1" d="M58.86,57.69h-23.17c-.34,0-.61-.27-.61-.61v-28.96c0-.34.27-.61.61-.61h23.17c.34,0,.61.27.61.61v28.96c0,.34-.27.61-.61.61ZM44.77,48.6h5c.34,0,.61-.27.61-.61v-10.79c0-.34-.27-.61-.61-.61h-5c-.34,0-.61.27-.61.61v10.79c0,.34.27.61.61.61Z"/>
      </g>
    </g>
  </g>
</svg>