<?xml version="1.0" encoding="UTF-8"?>
<svg id="Capa_2" xmlns="http://www.w3.org/2000/svg" viewBox="0 0 370.99 65.55">
  <defs>
    <style>
      .cls-1 {
        fill: #fff;
      }
    </style>
  </defs>
  <g id="Capa_2-2" data-name="Capa_2">
    <g>
      <path class="cls-1" d="M38.51,27.44h-4.12c-.15,0-.28.12-.28.27v8.47c0,.16.13.28.28.28h4.12c.15,0,.27-.12.27-.28v-8.47c0-.15-.12-.27-.27-.27ZM38.51,27.44h-4.12c-.15,0-.28.12-.28.27v8.47c0,.16.13.28.28.28h4.12c.15,0,.27-.12.27-.28v-8.47c0-.15-.12-.27-.27-.27ZM64.41,0H7.17C3.21,0,0,3.21,0,7.17v51.21c0,3.96,3.21,7.17,7.17,7.17h57.24c3.96,0,7.17-3.21,7.17-7.17V7.17c0-3.96-3.21-7.17-7.17-7.17ZM22.72,14.99c-.61.78-.59,1.67-.38,4.05.22,2.56.51,6.07-1.03,10.29-1.08,2.93-2.5,4.83-3.54,6.21-1.14,1.51-1.49,2.03-1.49,3.04,0,1.43.85,2.92,2.52,4.46.14.14.17.36.03.52l-4.01,4.58c-.13.15-.38.16-.53.02-3.21-2.9-4.83-6.12-4.84-9.57,0-3.33,1.51-5.36,2.86-7.15.56-.75,1.15-1.52,1.67-2.47,0,0-2.38-2.18-4.21-3.91-.84-.79-.34-2.2.81-2.28l5.11-.35c0-.97-.08-1.9-.16-2.82-.23-2.76-.49-5.89,1.83-8.84,2.04-2.6,5.29-3.98,9.65-4.07.21-.01.39.16.39.37l.03,6.08c0,.21-.17.37-.36.37-1.57.06-3.47.36-4.35,1.47ZM28,43.29c-.4,0-.72-.32-.72-.72v-21.24c0-.4.32-.72.72-.72h16.9c.39,0,.71.32.71.72v21.24c0,.4-.32.72-.71.72h-16.9ZM62.62,37.84c.75.72.35,1.99-.68,2.16-2.12.36-4.9.74-4.9.74-.04,1.1.05,2.05.14,3,.23,2.22.48,4.74-1.25,7.59-1.76,2.89-4.74,4.79-8.86,5.64-.34.07-.67-.16-.73-.5l-.97-5.53c-.06-.32.16-.62.48-.69,2.1-.46,3.52-1.29,4.24-2.47.52-.85.48-1.49.3-3.37-.17-1.72-.41-4.08.19-7.14.86-4.42,2.94-7.26,4.45-9.35,1.4-1.92,1.88-2.68,1.76-3.65-.16-1.35-1.5-2.55-2.77-3.39-.27-.18-.35-.54-.18-.82l2.93-4.78c.18-.3.57-.38.85-.2,3.56,2.31,5.55,5.12,5.95,8.36.46,3.73-1.39,6.27-3.02,8.51-.55.74-1.08,1.49-1.58,2.32l3.65,3.57ZM38.51,27.44h-4.12c-.15,0-.28.12-.28.27v8.47c0,.16.13.28.28.28h4.12c.15,0,.27-.12.27-.28v-8.47c0-.15-.12-.27-.27-.27Z"/>
      <g>
        <rect class="cls-1" x="319.55" y="8.12" width="9" height="51.83"/>
        <polygon class="cls-1" points="138.38 8.17 138.38 59.95 129.38 59.95 129.38 35.05 110.38 39.57 110.38 59.95 101.38 59.95 101.38 8.17 110.38 8.17 110.38 32.37 129.38 27.85 129.38 8.17 138.38 8.17"/>
        <path class="cls-1" d="M150.96,8.17h-.95v51.78h9v-5.97l14.55-3.46,7.61,9.43h11.56l-41.77-51.78ZM159.01,46.78v-14.3l9.68,11.99-9.68,2.31Z"/>
        <polygon class="cls-1" points="221.43 59.95 209.66 59.95 186.77 32.79 205.11 8.17 216.33 8.17 198.25 32.44 221.43 59.95"/>
        <polygon class="cls-1" points="268.69 59.95 256.91 59.95 237.35 36.73 237.35 59.95 228.35 59.95 228.35 8.17 237.35 8.17 237.35 28.33 252.37 8.17 263.59 8.17 245.51 32.44 268.69 59.95"/>
        <polygon class="cls-1" points="309.09 59.94 297.56 59.95 274.59 59.95 293.8 17.28 274.72 17.28 274.72 8.28 307.72 8.28 288.48 51.02 309.02 50.86 309.09 59.94"/>
        <polygon class="cls-1" points="358.2 16.63 358.39 59.95 349.39 59.95 349.2 16.74 338.41 16.89 338.28 8.17 370.91 8.17 370.99 16.51 358.2 16.63"/>
      </g>
      <rect class="cls-1" x="285.76" y="8.12" width="9" height=".05"/>
    </g>
  </g>
</svg>