<?xml version="1.0" encoding="UTF-8"?>
<svg id="Capa_2" xmlns="http://www.w3.org/2000/svg" viewBox="0 0 377.01 67.55">
  <defs>
    <style>
      .cls-1 {
        fill: #fff;
        stroke: #5200c5;
        stroke-miterlimit: 10;
        stroke-width: 2px;
      }
    </style>
  </defs>
  <g id="Capa_2-2" data-name="Capa_2">
    <g>
      <rect class="cls-1" x="1" y="1" width="71.58" height="65.55" rx="7.17" ry="7.17"/>
      <g>
        <path class="cls-1" d="M57.62,44.83c-.04,1.09.04,2.05.14,3,.23,2.22.48,4.74-1.25,7.59-1.76,2.89-4.74,4.79-8.86,5.64-.34.07-.66-.16-.72-.5l-.97-5.53c-.06-.32.16-.63.48-.69,2.1-.46,3.53-1.29,4.25-2.47.51-.85.48-1.49.3-3.37-.17-1.72-.41-4.08.19-7.14.86-4.42,2.94-7.26,4.45-9.35,1.41-1.93,1.88-2.68,1.76-3.66-.16-1.35-1.5-2.54-2.77-3.39-.27-.18-.35-.54-.18-.82l2.94-4.79c.17-.3.56-.38.85-.2,3.55,2.31,5.55,5.12,5.95,8.36.46,3.73-1.39,6.26-3.02,8.5-.55.75-1.09,1.49-1.58,2.33l3.65,3.56c.75.73.35,2-.68,2.17-2.12.35-4.9.74-4.9.74Z"/>
        <path class="cls-1" d="M28,17.24c0,.21-.17.37-.36.37-1.56.05-3.47.36-4.34,1.47-.61.77-.59,1.67-.38,4.05.22,2.56.51,6.07-1.03,10.29-1.08,2.93-2.5,4.83-3.53,6.21-1.14,1.51-1.49,2.03-1.49,3.04,0,1.42.85,2.92,2.52,4.46.15.14.17.36.03.52l-4.01,4.58c-.13.16-.38.17-.53.03-3.2-2.9-4.83-6.12-4.84-9.57,0-3.33,1.51-5.36,2.86-7.15.56-.76,1.15-1.52,1.67-2.48,0,0-2.37-2.18-4.21-3.9-.84-.79-.33-2.2.82-2.28l5.11-.36c0-.96-.08-1.89-.16-2.81-.23-2.76-.5-5.89,1.82-8.84,2.05-2.61,5.3-3.98,9.66-4.07.21,0,.38.17.38.37l.03,6.08Z"/>
        <path class="cls-1" d="M45.47,47.38h-16.89c-.4,0-.72-.32-.72-.72v-21.25c0-.4.32-.72.72-.72h16.89c.4,0,.72.32.72.72v21.25c0,.4-.32.72-.72.72ZM34.96,40.55h4.12c.15,0,.28-.12.28-.28v-8.47c0-.15-.12-.28-.28-.28h-4.12c-.15,0-.28.12-.28.28v8.47c0,.15.12.28.28.28Z"/>
      </g>
      <g>
        <rect class="cls-1" x="324.56" y="6.22" width="9" height="51.83"/>
        <polygon class="cls-1" points="143.39 6.27 143.39 58.05 134.39 58.05 134.39 33.15 115.39 37.67 115.39 58.05 106.39 58.05 106.39 6.27 115.39 6.27 115.39 30.47 134.39 25.95 134.39 6.27 143.39 6.27"/>
        <path class="cls-1" d="M155.97,6.27h-.95v51.78h9v-5.97l14.55-3.46,7.61,9.43h11.56L155.97,6.27ZM164.02,44.88v-14.3l9.68,11.99-9.68,2.31Z"/>
        <polygon class="cls-1" points="226.44 58.05 214.67 58.05 191.78 30.89 210.12 6.27 221.34 6.27 203.26 30.54 226.44 58.05"/>
        <polygon class="cls-1" points="273.7 58.05 261.92 58.05 242.36 34.83 242.36 58.05 233.36 58.05 233.36 6.27 242.36 6.27 242.36 26.43 257.38 6.27 268.6 6.27 250.52 30.54 273.7 58.05"/>
        <polygon class="cls-1" points="314.1 58.04 302.57 58.05 279.6 58.05 298.81 15.38 279.73 15.38 279.73 6.38 312.73 6.38 293.49 49.12 314.03 48.96 314.1 58.04"/>
        <polygon class="cls-1" points="363.21 14.73 363.4 58.05 354.4 58.05 354.21 14.84 343.42 14.99 343.29 6.27 375.92 6.27 376 14.61 363.21 14.73"/>
      </g>
      <rect class="cls-1" x="290.76" y="6.22" width="9" height=".05"/>
    </g>
  </g>
</svg>