<?xml version="1.0" encoding="UTF-8"?>
<svg id="Capa_2" xmlns="http://www.w3.org/2000/svg" viewBox="0 0 379.28 72">
  <defs>
    <style>
      .cls-1 {
        fill: #5200c5;
      }
    </style>
  </defs>
  <g id="Capa_2-2" data-name="Capa_2">
    <g>
      <g>
        <path class="cls-1" d="M68.29,48.75c-.06,1.57.06,2.93.2,4.29.32,3.18.68,6.79-1.79,10.87-2.53,4.14-6.79,6.85-12.69,8.07-.48.1-.95-.23-1.04-.71l-1.39-7.92c-.09-.46.22-.9.68-.99,3.01-.66,5.05-1.84,6.08-3.53.73-1.22.68-2.13.42-4.83-.25-2.46-.58-5.84.27-10.22,1.23-6.33,4.2-10.4,6.37-13.38,2.01-2.76,2.7-3.84,2.52-5.24-.24-1.93-2.15-3.64-3.97-4.85-.39-.26-.5-.77-.26-1.17l4.2-6.85c.25-.42.81-.55,1.22-.29,5.09,3.31,7.95,7.34,8.52,11.98.66,5.33-1.99,8.97-4.33,12.17-.78,1.07-1.55,2.14-2.26,3.33l5.22,5.1c1.07,1.04.5,2.86-.97,3.11-3.04.5-7.01,1.06-7.01,1.06Z"/>
        <path class="cls-1" d="M25.89,9.24c0,.3-.24.53-.52.53-2.24.07-4.96.51-6.22,2.1-.87,1.11-.85,2.39-.55,5.8.31,3.67.73,8.69-1.48,14.74-1.54,4.19-3.58,6.91-5.06,8.89-1.63,2.16-2.14,2.91-2.14,4.35,0,2.04,1.22,4.18,3.61,6.38.21.2.25.52.05.75l-5.75,6.55c-.19.22-.55.24-.76.04C2.48,55.22.16,50.6.15,45.66c-.01-4.76,2.16-7.67,4.09-10.23.81-1.08,1.64-2.18,2.39-3.54,0,0-3.4-3.12-6.03-5.59-1.2-1.13-.48-3.15,1.17-3.26l7.31-.51c0-1.38-.11-2.71-.22-4.03-.34-3.95-.71-8.43,2.61-12.66C14.4,2.1,19.05.14,25.29,0c.3-.01.55.24.55.53l.05,8.71Z"/>
        <path class="cls-1" d="M50.9,52.39h-24.19c-.57,0-1.03-.46-1.03-1.03v-30.42c0-.57.46-1.03,1.03-1.03h24.19c.57,0,1.03.46,1.03,1.03v30.42c0,.57-.46,1.03-1.03,1.03ZM35.85,42.62h5.9c.22,0,.4-.18.4-.4v-12.13c0-.22-.18-.4-.4-.4h-5.9c-.22,0-.4.18-.4.4v12.13c0,.22.18.4.4.4Z"/>
      </g>
      <g>
        <rect class="cls-1" x="327.84" y="10.06" width="9" height="51.83"/>
        <polygon class="cls-1" points="146.67 10.11 146.67 61.89 137.67 61.89 137.67 36.99 118.67 41.51 118.67 61.89 109.67 61.89 109.67 10.11 118.67 10.11 118.67 34.31 137.67 29.79 137.67 10.11 146.67 10.11"/>
        <path class="cls-1" d="M159.25,10.11h-.95v51.78h9v-5.97l14.55-3.46,7.61,9.43h11.56l-41.77-51.78ZM167.3,48.72v-14.3l9.68,11.99-9.68,2.31Z"/>
        <polygon class="cls-1" points="229.72 61.89 217.95 61.89 195.06 34.73 213.4 10.11 224.62 10.11 206.54 34.38 229.72 61.89"/>
        <polygon class="cls-1" points="276.98 61.89 265.2 61.89 245.64 38.67 245.64 61.89 236.64 61.89 236.64 10.11 245.64 10.11 245.64 30.27 260.66 10.11 271.88 10.11 253.8 34.38 276.98 61.89"/>
        <polygon class="cls-1" points="317.38 61.88 305.85 61.89 282.88 61.89 302.09 19.22 283.01 19.22 283.01 10.22 316.01 10.22 296.77 52.96 317.31 52.8 317.38 61.88"/>
        <polygon class="cls-1" points="366.49 18.57 366.68 61.89 357.68 61.89 357.49 18.68 346.7 18.83 346.57 10.11 379.2 10.11 379.28 18.45 366.49 18.57"/>
      </g>
      <rect class="cls-1" x="294.05" y="10.06" width="9" height=".05"/>
    </g>
  </g>
</svg>