<?xml version="1.0" encoding="UTF-8"?>
<svg id="Capa_2" xmlns="http://www.w3.org/2000/svg" viewBox="0 0 269.61 214.12">
  <defs>
    <style>
      .cls-1 {
        fill: #fff;
      }
    </style>
  </defs>
  <g id="Capa_2-2" data-name="Capa_2">
    <g>
      <path class="cls-1" d="M133.42,52.62h-7.9c-.29,0-.54.23-.54.52v16.24c0,.31.25.54.54.54h7.9c.29,0,.52-.23.52-.54v-16.24c0-.29-.23-.52-.52-.52ZM133.42,52.62h-7.9c-.29,0-.54.23-.54.52v16.24c0,.31.25.54.54.54h7.9c.29,0,.52-.23.52-.54v-16.24c0-.29-.23-.52-.52-.52ZM183.08,0h-109.76c-7.59,0-13.75,6.16-13.75,13.75v98.2c0,7.59,6.16,13.75,13.75,13.75h109.76c7.59,0,13.75-6.16,13.75-13.75V13.75c0-7.59-6.16-13.75-13.75-13.75ZM103.14,28.75c-1.17,1.5-1.13,3.2-.73,7.77.42,4.91.98,11.64-1.98,19.73-2.07,5.62-4.79,9.26-6.79,11.91-2.19,2.9-2.86,3.89-2.86,5.83,0,2.74,1.63,5.6,4.83,8.55.27.27.33.69.06,1l-7.69,8.78c-.25.29-.73.31-1.02.04-6.16-5.56-9.26-11.74-9.28-18.35-.02-6.39,2.9-10.28,5.48-13.71,1.07-1.44,2.21-2.91,3.2-4.74,0,0-4.56-4.18-8.07-7.5-1.61-1.51-.65-4.22,1.55-4.37l9.8-.67c0-1.86-.15-3.64-.31-5.41-.44-5.29-.94-11.29,3.51-16.95,3.91-4.99,10.14-7.63,18.5-7.8.4-.02.75.31.75.71l.06,11.66c0,.4-.33.71-.69.71-3.01.12-6.65.69-8.34,2.82ZM113.26,83.01c-.77,0-1.38-.61-1.38-1.38v-40.73c0-.77.61-1.38,1.38-1.38h32.41c.75,0,1.36.61,1.36,1.38v40.73c0,.77-.61,1.38-1.36,1.38h-32.41ZM179.65,72.56c1.44,1.38.67,3.82-1.3,4.14-4.07.69-9.4,1.42-9.4,1.42-.08,2.11.1,3.93.27,5.75.44,4.26.92,9.09-2.4,14.55-3.38,5.54-9.09,9.19-16.99,10.82-.65.13-1.28-.31-1.4-.96l-1.86-10.6c-.12-.61.31-1.19.92-1.32,4.03-.88,6.75-2.47,8.13-4.74,1-1.63.92-2.86.58-6.46-.33-3.3-.79-7.82.36-13.69,1.65-8.48,5.64-13.92,8.53-17.93,2.68-3.68,3.61-5.14,3.38-7-.31-2.59-2.88-4.89-5.31-6.5-.52-.35-.67-1.04-.35-1.57l5.62-9.17c.35-.58,1.09-.73,1.63-.38,6.83,4.43,10.64,9.82,11.41,16.03.88,7.15-2.67,12.02-5.79,16.32-1.05,1.42-2.07,2.86-3.03,4.45l7,6.85ZM133.42,52.62h-7.9c-.29,0-.54.23-.54.52v16.24c0,.31.25.54.54.54h7.9c.29,0,.52-.23.52-.54v-16.24c0-.29-.23-.52-.52-.52Z"/>
      <g>
        <rect class="cls-1" x="218.17" y="162.29" width="9" height="51.83"/>
        <polygon class="cls-1" points="37 162.34 37 214.12 28 214.12 28 189.22 9 193.74 9 214.12 0 214.12 0 162.34 9 162.34 9 186.54 28 182.02 28 162.34 37 162.34"/>
        <path class="cls-1" d="M49.58,162.34h-.95v51.78h9v-5.97l14.55-3.46,7.61,9.43h11.56l-41.77-51.78ZM57.63,200.95v-14.3l9.68,11.99-9.68,2.31Z"/>
        <polygon class="cls-1" points="120.05 214.12 108.28 214.12 85.39 186.96 103.73 162.34 114.95 162.34 96.87 186.61 120.05 214.12"/>
        <polygon class="cls-1" points="167.31 214.12 155.53 214.12 135.97 190.9 135.97 214.12 126.97 214.12 126.97 162.34 135.97 162.34 135.97 182.5 150.99 162.34 162.21 162.34 144.13 186.61 167.31 214.12"/>
        <polygon class="cls-1" points="207.71 214.11 196.18 214.12 173.21 214.12 192.42 171.45 173.34 171.45 173.34 162.45 206.34 162.45 187.1 205.19 207.64 205.03 207.71 214.11"/>
        <polygon class="cls-1" points="256.82 170.8 257.01 214.12 248.01 214.12 247.82 170.91 237.03 171.06 236.9 162.34 269.53 162.34 269.61 170.68 256.82 170.8"/>
      </g>
      <rect class="cls-1" x="184.37" y="162.29" width="9" height=".05"/>
    </g>
  </g>
</svg>